/* XPM */
static char *b5eecc021c004f099eb48d70415fe3347JsIpOPjRh8X7qHc[] = {
/* columns rows colors chars-per-pixel */
"64 64 73 1 ",
"  c None",
". c #F8B147",
"X c #F8B148",
"o c #F8B149",
"O c #F8B249",
"+ c #F8B14A",
"@ c #F8B24A",
"# c #F8B24B",
"$ c #F8B34B",
"% c #F8B24C",
"& c #F8B34C",
"* c #F8B34D",
"= c #F8B34E",
"- c #F8B34F",
"; c #F8B44E",
": c #F8B44F",
"> c #F8B450",
", c #F8B550",
"< c #F8B451",
"1 c #F8B551",
"2 c #F8B552",
"3 c #F8B652",
"4 c #F8B653",
"5 c #F8B654",
"6 c #F8B655",
"7 c #F8B755",
"8 c #F8B756",
"9 c #F9B756",
"0 c #F9B757",
"q c #F8B858",
"w c #F8B859",
"e c #F8B959",
"r c #F8B95A",
"t c #F9B95A",
"y c #F8B95B",
"u c #F9B95B",
"i c #F8BA5B",
"p c #F9BA5C",
"a c #F9BA5D",
"s c #F9BA5E",
"d c #F9BB5E",
"f c #F9BB60",
"g c #F8BB61",
"h c #F9BC60",
"j c #F9BC61",
"k c #F9BC62",
"l c #F9BC63",
"z c #F9BD63",
"x c #F9BD64",
"c c #F9BD65",
"v c #F9BE66",
"b c #F9BE67",
"n c #F9BF68",
"m c #F9BF69",
"M c #F9BF6A",
"N c #F9C06A",
"B c #F9C06B",
"V c #F9C16D",
"C c #F9C16E",
"Z c #F9C16F",
"A c #F9C26F",
"S c #F9C271",
"D c #F9C371",
"F c #F9C272",
"G c #FAC372",
"H c #F9C575",
"J c #F9C476",
"K c #FAC576",
"L c #FAC677",
"P c #FAC678",
"I c #FAC679",
"U c #FAC67B",
"Y c #FACB86",
/* pixels */
"                            ::::::::                            ",
"                       ::::::::::::::::::                       ",
"                    :::::::::**::*@*::::::::                    ",
"                  ::::::@@::2yy2:ys52*@*::::::                  ",
"                :::2:*@2sA            As2:@:::::                ",
"               ::::@*s                    l:@::::               ",
"             ::::$*b                        M2@::::             ",
"            :::*@y                            l**:::            ",
"           :::@2                                9@:::           ",
"          :::@y                                  l@*::          ",
"         :::@l                                    A@:::         ",
"        :::@B                                       **::        ",
"       :::@M                                         @*::       ",
"      :::@b             :::::::::::                  G@:::      ",
"      ::@y         :::::::::::::::::::::              v@::      ",
"     ::*2          :::::::::::::::::::::::             y*::     ",
"    :::@           :::::::::::::::::::::::::            ::::    ",
"    ::@g           ::::::::::::::::::::::::::           D.::    ",
"   :::@            :::::::::::::::::::::::::::           5*::   ",
"   ::@B            ::::::::::::::::::::::::::::          Y.::   ",
"  :::@             ::::::::::    ::::::::::::::           2*::  ",
"  ::@g             :::::::::         ::::::::::           K@::  ",
"  *:@       ::::::::::::::::::::::::::::::::::::::::::     *::  ",
" :2:*       ::::::::::::::::::::::::::::::::::::::::::     y*:: ",
" ::@l       ::::::::::::::::::::::::::::::::::::::::::     D@2* ",
" :*@I              :::::::::           :::::::::            @*2 ",
" *2@               :::::::::           :::::::::            ::* ",
" 2:*        ::::::::::::::::::::::::::::::::::::::::::      y*: ",
"::*2        ::::::::::::::::::::::::::::::::::::::::::      s$::",
"::@y        ::::::::::::::::::::::::::::::::::::::::::      B@::",
"::@b               :::::::::        :::::::::::             l$::",
":::5               ::::::::::::::::::::::::::::             2:::",
":::2               :::::::::::::::::::::::::::              ::::",
"::@l               :::::::::::::::::::::::::::              l:::",
"::@s               ::::::::::::::::::::::::::               A@::",
":::5               :::::::::::::::::::::::::                d$::",
" :::               :::::::::::::::::::::::                  y$: ",
" ::@               ::::::::::::::::::::                     2:: ",
" ::@K              :::::::::::::::                          @:: ",
" *2@z              :::::::::                               P@:: ",
" :::2              :::::::::                               s$:: ",
"  ::@              :::::::::                               @::  ",
"  ::@l             :::::::::                              K@::  ",
"  :::*             :::::::::                              9:::  ",
"   ::@B            :::::::::                              .::   ",
"   ::::            :::::::::                             5:::   ",
"    ::.b           :::::::::                            P@::    ",
"    :::@           :::::::::                            *:::    ",
"     ::*5          :::::::::                           s@2:     ",
"      ::@l         :::::::::                          D@:*:     ",
"      :::@B        :::::::::                          @:::      ",
"       :::@K                                         **::       ",
"        :::@K                                       **::        ",
"         :::@B                                     **2:         ",
"          :::@g                                  B@:*:          ",
"           ::2@5                                s@:::           ",
"            :::**z                            M:*:::            ",
"             :::2@2n                        G5@::::             ",
"               ::::@2z                    b5**::::              ",
"                :::::@:5v              by*@*::::                ",
"                  :::::::@:2ylN52lby5:*@*:::::                  ",
"                    :::::::::@@::*@*::*2::::                    ",
"                       ::::::::::::::::::                       ",
"                            ::::::::                            "
};
