/* XPM */
static char *_b2905ef85ff41fbe3e76961b5ed7e02ybNVVEC1YtmUibut[] = {
/* columns rows colors chars-per-pixel */
"16 16 34 1 ",
"  c None",
". c #F8B24A",
"X c #F8B24B",
"o c #F8B34B",
"O c #F8B24C",
"+ c #F8B34C",
"@ c #F8B34D",
"# c #F8B34E",
"$ c #F8B44E",
"% c #F8B44F",
"& c #F8B551",
"* c #F8B552",
"= c #F8B652",
"- c #F8B653",
"; c #F8B654",
": c #F8B755",
"> c #F8B756",
", c #F8B757",
"< c #F8B858",
"1 c #F8B95B",
"2 c #F8BA5B",
"3 c #F9BA5C",
"4 c #F9BC60",
"5 c #F9BC62",
"6 c #F9BE66",
"7 c #F9BE67",
"8 c #F9C06C",
"9 c #F9C16D",
"0 c #F9C16E",
"q c #F9C26F",
"w c #F9C475",
"e c #F9C577",
"r c #FAC577",
"t c #FAC678",
/* pixels */
"     +=>==+     ",
"   +1      1+   ",
"  X9        9@  ",
" Xw  ++++    wX ",
" 5   =+&+=@   7 ",
"X   &+&&&+==   @",
"=  ++&&++&=+@  <",
">   &++&&+@=   <",
">    +=+&+@    ,",
"=    &+=&      >",
"X    =@        X",
" 5   +=       6 ",
" Xw  @@      tX ",
"  X9        9+  ",
"   @<      1+   ",
"     +=>>=+     "
};
