/* XPM */
static char *_dc846612564408b959c92a8118e3fe1WVEBPCj4HU0UF9rj[] = {
/* columns rows colors chars-per-pixel */
"32 32 51 1 ",
"  c None",
". c #F8B249",
"X c #F8B24A",
"o c #F8B24B",
"O c #F8B34B",
"+ c #F8B34C",
"@ c #F8B34D",
"# c #F8B34E",
"$ c #F8B44E",
"% c #F8B44F",
"& c #F8B550",
"* c #F8B551",
"= c #F8B552",
"- c #F8B652",
"; c #F8B653",
": c #F8B754",
"> c #F8B655",
", c #F8B755",
"< c #F9B755",
"1 c #F8B756",
"2 c #F8B857",
"3 c #F9B857",
"4 c #F8B858",
"5 c #F9B858",
"6 c #F9B95A",
"7 c #F8B95B",
"8 c #F9B95B",
"9 c #F8BA5D",
"0 c #F9BA5D",
"q c #F9BB5D",
"w c #F9BB5F",
"e c #F9BD63",
"r c #F9BD64",
"t c #F9BE65",
"y c #F9BE66",
"u c #F9BF69",
"i c #F9BF6A",
"p c #F9C069",
"a c #F9C06A",
"s c #F9C06B",
"d c #FAC06B",
"f c #F9C26F",
"g c #F9C271",
"h c #FAC372",
"j c #FAC473",
"k c #F9C474",
"l c #FAC475",
"z c #FAC77B",
"x c #FAC87E",
"c c #FAC97E",
"v c #FACA81",
/* pixels */
"             %$$$@$             ",
"          ++o=3=-1=+++          ",
"        %o:e        y:++        ",
"      %+=              :+=      ",
"     %oe                yo%     ",
"    %+p                  g+%    ",
"   %op                    zo%   ",
"   oy     %%%%%%%%%%%      uo   ",
"  +=      %%%%%%%%%%%%      3+  ",
"  ov      %%%%%%%%%%%%%      o  ",
" +:       %%%%    %%%%%%     9+ ",
" oj   %%%%%%%%%%%%%%%%%%%%%  xo ",
" o       %%%%%     %%%%%%     + ",
"%=       %%%%%     %%%%%      :+",
"o3    %%%%%%%%%%%%%%%%%%%%=   9+",
"%3        %%%%   %%%%%%%      :=",
"@1        %%%%%%%%%%%%%       :+",
"@6        %%%%%%%%%%%%        e+",
"$-        %%%%%%%%%%          :+",
" .        %%%%                + ",
" ol       %%%%               vo ",
" +3       %%%%               9+ ",
"  o       %%%%               o  ",
"  +:      %%%%              6+  ",
"   ou     %%%%             go   ",
"   =ol    %%%%             o%   ",
"    %of                   +%    ",
"     %oy                p+=     ",
"      %%:              3o%      ",
"        o%3p        p3%+        ",
"          o%%=66:6=%%o          ",
"             %++%%%             "
};
